<svg xmlns:xlink="http://www.w3.org/1999/xlink" width="24" xmlns="http://www.w3.org/2000/svg" height="24" id="screenshot-d07eaf96-5efe-80cc-8001-bdc7e041cddb" viewBox="0 0 24 24" style="-webkit-print-color-adjust: exact;" fill="none" version="1.1"><g id="shape-d07eaf96-5efe-80cc-8001-bdc7e041cddb"><defs><clipPath id="frame-clip-d07eaf96-5efe-80cc-8001-bdc7e041cddb-d5fe9c8b-b517-805e-8001-bdc8889cb11b" class="frame-clip"><rect rx="8" ry="8" x="0" y="0" width="24" height="24" transform="matrix(1,0,0,1,0,0)" style="fill: rgb(42, 48, 60); fill-opacity: 1;"/></clipPath></defs><g clip-path="url(#frame-clip-d07eaf96-5efe-80cc-8001-bdc7e041cddb-d5fe9c8b-b517-805e-8001-bdc8889cb11b)"><clipPath id="frame-clip-d07eaf96-5efe-80cc-8001-bdc7e041cddb-d5fe9c8b-b517-805e-8001-bdc8889cb11b" class="frame-clip"><rect rx="8" ry="8" x="0" y="0" width="24" height="24" transform="matrix(1,0,0,1,0,0)" style="fill: rgb(42, 48, 60); fill-opacity: 1;"/></clipPath><g id="fills-d07eaf96-5efe-80cc-8001-bdc7e041cddb"><rect width="24" height="24" class="frame-background" x="0" transform="matrix(1,0,0,1,0,0)" style="fill: rgb(42, 48, 60); fill-opacity: 1;" ry="8" rx="8" y="0"/></g><g class="frame-children"><g id="shape-d07eaf96-5efe-80cc-8001-bdc7d0cffccc" class="w-6 h-6" rx="0" ry="0" style="fill: rgb(0, 0, 0);"><g id="shape-d07eaf96-5efe-80cc-8001-bdc7d0d42819"><g id="fills-d07eaf96-5efe-80cc-8001-bdc7d0d42819"><path fill="currentColor" rx="0" ry="0" d="M18.524,6.476C17.89,5.841,16.861,5.841,16.226,6.476L15.51,7.192L17.808,9.49L18.524,8.774C19.159,8.139,19.159,7.11,18.524,6.476ZZM17.151,10.147L14.853,7.849L7.332,15.37C6.95,15.752,6.669,16.223,6.515,16.741L6.019,18.403C5.971,18.566,6.015,18.743,6.136,18.864C6.257,18.985,6.434,19.029,6.597,18.981L8.259,18.485C8.777,18.331,9.248,18.05,9.63,17.668L17.151,10.147ZZ" style="fill: rgb(255, 255, 255); fill-opacity: 1;"/></g></g></g></g></g></g></svg>